<?xml version="1.0" standalone="no"?>
<!DOCTYPE svg PUBLIC "-//W3C//DTD SVG 20010904//EN"
 "http://www.w3.org/TR/2001/REC-SVG-20010904/DTD/svg10.dtd">
<svg version="1.0" xmlns="http://www.w3.org/2000/svg"
 width="600.000000pt" height="600.000000pt" viewBox="0 0 600.000000 600.000000"
 preserveAspectRatio="xMidYMid meet">
<metadata>
Created by potrace 1.14, written by Peter Selinger 2001-2017
</metadata>
<g transform="translate(0.000000,600.000000) scale(0.100000,-0.100000)"
fill="#000000" stroke="none">
<path d="M2422 5883 c-7 -3 -19 -18 -28 -35 -18 -36 -11 -78 18 -104 51 -46
163 -205 209 -298 120 -242 118 -512 -7 -775 -59 -125 -113 -198 -258 -349
-150 -157 -227 -251 -323 -395 -169 -252 -269 -526 -276 -752 -2 -98 -8 -97
-59 14 -75 162 -105 477 -78 830 12 148 6 172 -46 191 -43 17 -72 0 -168 -95
-358 -358 -572 -802 -652 -1350 -24 -162 -24 -508 -1 -653 94 -587 378 -1112
785 -1453 254 -213 571 -375 900 -460 296 -76 658 -107 917 -79 343 38 706
168 995 358 434 284 741 698 855 1152 45 177 59 309 59 530 -1 166 -5 228 -22
324 -42 226 -127 437 -251 624 -163 243 -219 259 -305 87 -53 -107 -110 -171
-187 -211 -47 -24 -66 -28 -139 -28 -144 -1 -224 51 -272 176 -41 109 -35 270
22 563 44 224 60 369 60 538 0 235 -23 388 -90 590 -202 607 -669 964 -1380
1052 -121 15 -252 19 -278 8z m1017 -2022 c18 -11 12 -40 -33 -171 -137 -395
-119 -804 52 -1134 50 -98 98 -165 281 -396 258 -325 355 -490 414 -705 18
-67 21 -106 21 -245 0 -148 -2 -175 -27 -263 -52 -189 -150 -358 -286 -496
-89 -91 -128 -112 -281 -154 -108 -30 -131 -34 -292 -52 -111 -13 -343 -13
-418 -1 -19 3 -53 9 -74 11 -51 7 -245 54 -271 65 -11 5 -49 19 -85 31 -173
58 -230 98 -330 230 -81 108 -126 192 -170 317 -50 142 -64 231 -63 387 1 196
51 408 135 583 48 99 90 148 114 134 9 -5 30 -47 48 -93 41 -111 94 -196 170
-274 77 -80 129 -100 184 -69 20 10 42 30 50 44 20 39 8 125 -33 225 -71 176
-102 347 -91 505 12 175 77 411 177 646 132 310 378 600 708 836 70 50 78 53
100 39z"/>
</g>
</svg>
